HIERARCHY
ROOT Hips
{
	OFFSET 0.0000 0.0650 0.0000
	CHANNELS 6 Xposition Yposition Zposition Yrotation Xrotation Zrotation
	JOINT Spine
	{
		OFFSET 0.0000 0.0650 0.0000
		CHANNELS 3 Yrotation Xrotation Zrotation
		JOINT Spine1
		{
			OFFSET 0.0000 0.2133 0.0000
			CHANNELS 3 Yrotation Xrotation Zrotation
			JOINT Neck
			{
				OFFSET 0.0000 0.2349 0.0000
				CHANNELS 3 Yrotation Xrotation Zrotation
				JOINT Head
				{
					OFFSET 0.0000 0.1518 0.0196
					CHANNELS 3 Yrotation Xrotation Zrotation
				}
			}
			JOINT LeftShoulder
			{
				OFFSET 0.0383 0.1994 -0.0017
				CHANNELS 3 Yrotation Xrotation Zrotation
				JOINT LeftArm
				{
					OFFSET 0.0971 0.0000 0.0000
					CHANNELS 3 Yrotation Xrotation Zrotation
					JOINT LeftForeArm
					{
						OFFSET 0.2888 0.0000 0.0000
						CHANNELS 3 Yrotation Xrotation Zrotation
						JOINT LeftHand
						{
							OFFSET 0.2534 0.0000 0.0000
							CHANNELS 3 Yrotation Xrotation Zrotation
							JOINT LeftHandIndex1
							{
								OFFSET 0.0843 0.0000 0.0328
								CHANNELS 3 Yrotation Xrotation Zrotation
								JOINT LeftHandIndex2
								{
									OFFSET 0.0372 0.0000 0.0000
									CHANNELS 3 Yrotation Xrotation Zrotation
									JOINT LeftHandIndex3
									{
										OFFSET 0.0265 0.0000 0.0000
										CHANNELS 3 Yrotation Xrotation Zrotation
									}
								}
							}
							JOINT LeftHandMiddle1
							{
								OFFSET 0.0843 0.0000 0.0109
								CHANNELS 3 Yrotation Xrotation Zrotation
								JOINT LeftHandMiddle2
								{
									OFFSET 0.0414 0.0000 0.0000
									CHANNELS 3 Yrotation Xrotation Zrotation
									JOINT LeftHandMiddle3
									{
										OFFSET 0.0252 0.0000 0.0000
										CHANNELS 3 Yrotation Xrotation Zrotation
									}
								}
							}
							JOINT LeftHandPinky1
							{
								OFFSET 0.0713 0.0000 -0.0328
								CHANNELS 3 Yrotation Xrotation Zrotation
								JOINT LeftHandPinky2
								{
									OFFSET 0.0309 0.0000 0.0000
									CHANNELS 3 Yrotation Xrotation Zrotation
									JOINT LeftHandPinky3
									{
										OFFSET 0.0239 0.0000 0.0000
										CHANNELS 3 Yrotation Xrotation Zrotation
									}
								}
							}
							JOINT LeftHandRing1
							{
								OFFSET 0.0799 0.0000 -0.0109
								CHANNELS 3 Yrotation Xrotation Zrotation
								JOINT LeftHandRing2
								{
									OFFSET 0.0374 0.0000 0.0000
									CHANNELS 3 Yrotation Xrotation Zrotation
									JOINT LeftHandRing3
									{
										OFFSET 0.0255 0.0000 0.0000
										CHANNELS 3 Yrotation Xrotation Zrotation
									}
								}
							}
							JOINT LeftHandThumb1
							{
								OFFSET 0.0206 -0.0001 0.0517
								CHANNELS 3 Yrotation Xrotation Zrotation
								JOINT LeftHandThumb2
								{
									OFFSET 0.0328 0.0000 0.0000
									CHANNELS 3 Yrotation Xrotation Zrotation
									JOINT LeftHandThumb3
									{
										OFFSET 0.0260 0.0000 0.0000
										CHANNELS 3 Yrotation Xrotation Zrotation
									}
								}
							}
						}
					}
				}
			}
			JOINT RightShoulder
			{
				OFFSET -0.0380 0.1994 -0.0017
				CHANNELS 3 Yrotation Xrotation Zrotation
				JOINT RightArm
				{
					OFFSET -0.0971 0.0000 0.0000
					CHANNELS 3 Yrotation Xrotation Zrotation
					JOINT RightForeArm
					{
						OFFSET -0.2888 0.0000 0.0000
						CHANNELS 3 Yrotation Xrotation Zrotation
						JOINT RightHand
						{
							OFFSET -0.2534 0.0000 0.0000
							CHANNELS 3 Yrotation Xrotation Zrotation
							JOINT RightHandIndex1
							{
								OFFSET -0.0850 0.0000 0.0328
								CHANNELS 3 Yrotation Xrotation Zrotation
								JOINT RightHandIndex2
								{
									OFFSET -0.0372 0.0000 0.0000
									CHANNELS 3 Yrotation Xrotation Zrotation
									JOINT RightHandIndex3
									{
										OFFSET -0.0265 0.0000 0.0000
										CHANNELS 3 Yrotation Xrotation Zrotation
									}
								}
							}
							JOINT RightHandMiddle1
							{
								OFFSET -0.0850 0.0000 0.0109
								CHANNELS 3 Yrotation Xrotation Zrotation
								JOINT RightHandMiddle2
								{
									OFFSET -0.0414 0.0000 0.0000
									CHANNELS 3 Yrotation Xrotation Zrotation
									JOINT RightHandMiddle3
									{
										OFFSET -0.0252 0.0000 0.0000
										CHANNELS 3 Yrotation Xrotation Zrotation
									}
								}
							}
							JOINT RightHandPinky1
							{
								OFFSET -0.0720 0.0000 -0.0328
								CHANNELS 3 Yrotation Xrotation Zrotation
								JOINT RightHandPinky2
								{
									OFFSET -0.0309 0.0000 0.0000
									CHANNELS 3 Yrotation Xrotation Zrotation
									JOINT RightHandPinky3
									{
										OFFSET -0.0239 0.0000 0.0000
										CHANNELS 3 Yrotation Xrotation Zrotation
									}
								}
							}
							JOINT RightHandRing1
							{
								OFFSET -0.0807 0.0000 -0.0109
								CHANNELS 3 Yrotation Xrotation Zrotation
								JOINT RightHandRing2
								{
									OFFSET -0.0374 0.0000 0.0000
									CHANNELS 3 Yrotation Xrotation Zrotation
									JOINT RightHandRing3
									{
										OFFSET -0.0255 0.0000 0.0000
										CHANNELS 3 Yrotation Xrotation Zrotation
									}
								}
							}
							JOINT RightHandThumb1
							{
								OFFSET -0.0214 -0.0001 0.0517
								CHANNELS 3 Yrotation Xrotation Zrotation
								JOINT RightHandThumb2
								{
									OFFSET -0.0328 0.0000 0.0000
									CHANNELS 3 Yrotation Xrotation Zrotation
									JOINT RightHandThumb3
									{
										OFFSET -0.0260 0.0000 0.0000
										CHANNELS 3 Yrotation Xrotation Zrotation
									}
								}
							}
						}
					}
				}
			}
		}
	}
	JOINT LeftUpLeg
	{
		OFFSET 0.0981 0.0000 0.0000
		CHANNELS 3 Yrotation Xrotation Zrotation
		JOINT LeftLeg
		{
			OFFSET 0.0000 -0.3921 0.0000
			CHANNELS 3 Yrotation Xrotation Zrotation
			JOINT LeftFoot
			{
				OFFSET 0.0000 -0.3929 0.0000
				CHANNELS 3 Yrotation Xrotation Zrotation
				JOINT LeftToeBase
				{
					OFFSET 0.0000 -0.0638 0.1472
					CHANNELS 3 Yrotation Xrotation Zrotation
				}
			}
		}
	}
	JOINT RightUpLeg
	{
		OFFSET -0.0955 0.0000 0.0000
		CHANNELS 3 Yrotation Xrotation Zrotation
		JOINT RightLeg
		{
			OFFSET 0.0000 -0.3814 0.0000
			CHANNELS 3 Yrotation Xrotation Zrotation
			JOINT RightFoot
			{
				OFFSET 0.0000 -0.3822 0.0000
				CHANNELS 3 Yrotation Xrotation Zrotation
				JOINT RightToeBase
				{
					OFFSET 0.0000 -0.0620 0.1432
					CHANNELS 3 Yrotation Xrotation Zrotation
				}
			}
		}
	}
}
MOTION
Frames: 4
Frame Time: 0.0166667
-0.0118 0.7161 -0.1303 21.0341 19.2169 357.1383 3.2625 6.8615 359.2659 1.0077 1.6993 354.4955 358.0250 351.1455 358.5013 356.0522 343.6925 4.9799 352.4402 356.2463 7.6193 358.4576 333.1128 323.1710 226.8032 23.9687 34.1782 3.1388 356.0582 16.7819 0.0000 0.0000 0.0000 0.0000 0.0000 0.0000 0.0000 0.0000 0.0000 0.0000 0.0000 0.0000 0.0000 0.0000 0.0000 0.0000 0.0000 0.0000 0.0000 0.0000 0.0000 0.0000 0.0000 0.0000 0.0000 0.0000 0.0000 0.0000 0.0000 0.0000 0.0000 0.0000 0.0000 0.0000 0.0000 0.0000 0.0000 0.0000 0.0000 0.0000 0.0000 0.0000 0.0000 0.0000 0.0000 2.3908 6.1377 355.9725 21.6006 24.2188 39.7948 57.7656 6.9905 20.8893 350.3838 356.9406 7.9424 0.0000 0.0000 0.0000 0.0000 0.0000 0.0000 0.0000 0.0000 0.0000 0.0000 0.0000 0.0000 0.0000 0.0000 0.0000 0.0000 0.0000 0.0000 0.0000 0.0000 0.0000 0.0000 0.0000 0.0000 0.0000 0.0000 0.0000 0.0000 0.0000 0.0000 0.0000 0.0000 0.0000 0.0000 0.0000 0.0000 0.0000 0.0000 0.0000 0.0000 0.0000 0.0000 0.0000 0.0000 0.0000 3.7796 300.0634 1.2140 24.0134 59.8511 29.6396 349.3538 336.1610 348.5735 354.8562 2.1629 3.6949 345.3734 305.8769 0.7308 6.5812 61.1355 1.4561 348.2718 336.8259 13.2849 2.6244 0.6357 1.0635 
-0.0104 0.7117 -0.1307 21.0360 19.1532 357.0240 3.2322 6.9740 359.2609 0.9835 1.8190 354.6084 357.9543 351.1550 358.5717 356.0097 343.5383 5.0036 352.4266 356.2117 7.6598 358.4362 332.9701 323.1264 226.5900 24.3930 33.9757 3.1383 356.0683 16.8189 0.0000 0.0000 0.0000 0.0000 0.0000 0.0000 0.0000 0.0000 0.0000 0.0000 0.0000 0.0000 0.0000 0.0000 0.0000 0.0000 0.0000 0.0000 0.0000 0.0000 0.0000 0.0000 0.0000 0.0000 0.0000 0.0000 0.0000 0.0000 0.0000 0.0000 0.0000 0.0000 0.0000 0.0000 0.0000 0.0000 0.0000 0.0000 0.0000 0.0000 0.0000 0.0000 0.0000 0.0000 0.0000 2.4009 6.1809 355.9623 21.5361 24.4946 39.8235 57.6669 6.5441 20.8810 350.4141 356.9547 8.0515 0.0000 0.0000 0.0000 0.0000 0.0000 0.0000 0.0000 0.0000 0.0000 0.0000 0.0000 0.0000 0.0000 0.0000 0.0000 0.0000 0.0000 0.0000 0.0000 0.0000 0.0000 0.0000 0.0000 0.0000 0.0000 0.0000 0.0000 0.0000 0.0000 0.0000 0.0000 0.0000 0.0000 0.0000 0.0000 0.0000 0.0000 0.0000 0.0000 0.0000 0.0000 0.0000 0.0000 0.0000 0.0000 3.8192 299.3824 1.2090 25.3365 60.9941 30.9411 349.4041 335.4713 348.6006 354.8231 2.1890 3.8350 345.3742 305.3708 0.6649 6.7790 62.2345 1.5924 348.3391 336.1877 13.5533 2.6903 0.5893 1.1325 
-0.0089 0.7097 -0.1307 21.0006 19.1417 356.9560 3.2172 6.9939 359.2285 0.9770 1.8809 354.6658 357.9722 351.2733 358.5532 356.0441 343.5313 4.9554 352.4820 356.2679 7.6598 358.7150 333.1156 323.0208 226.8334 24.2217 33.9085 3.1227 356.0605 16.9391 0.0000 0.0000 0.0000 0.0000 0.0000 0.0000 0.0000 0.0000 0.0000 0.0000 0.0000 0.0000 0.0000 0.0000 0.0000 0.0000 0.0000 0.0000 0.0000 0.0000 0.0000 0.0000 0.0000 0.0000 0.0000 0.0000 0.0000 0.0000 0.0000 0.0000 0.0000 0.0000 0.0000 0.0000 0.0000 0.0000 0.0000 0.0000 0.0000 0.0000 0.0000 0.0000 0.0000 0.0000 0.0000 2.4100 6.2655 355.9884 21.6065 24.5616 39.9543 57.2189 6.1547 20.7310 350.4614 356.9555 8.1540 0.0000 0.0000 0.0000 0.0000 0.0000 0.0000 0.0000 0.0000 0.0000 0.0000 0.0000 0.0000 0.0000 0.0000 0.0000 0.0000 0.0000 0.0000 0.0000 0.0000 0.0000 0.0000 0.0000 0.0000 0.0000 0.0000 0.0000 0.0000 0.0000 0.0000 0.0000 0.0000 0.0000 0.0000 0.0000 0.0000 0.0000 0.0000 0.0000 0.0000 0.0000 0.0000 0.0000 0.0000 0.0000 4.0393 299.0922 1.0145 26.1814 61.4753 31.7262 349.4563 335.1222 348.7089 354.8327 2.1878 3.8031 345.4539 305.2113 0.5294 6.9265 62.6237 1.6926 348.3533 335.8889 13.8014 2.5001 0.6983 0.8583 
-0.0074 0.7077 -0.1307 20.9652 19.1306 356.8887 3.2013 7.0174 359.1959 0.9706 1.9425 354.7230 357.9918 351.3913 358.5329 356.0783 343.5239 4.9073 352.5383 356.3266 7.6569 358.9931 333.2614 322.9161 227.0760 24.0489 33.8404 3.1072 356.0502 17.0508 0.0000 0.0000 0.0000 0.0000 0.0000 0.0000 0.0000 0.0000 0.0000 0.0000 0.0000 0.0000 0.0000 0.0000 0.0000 0.0000 0.0000 0.0000 0.0000 0.0000 0.0000 0.0000 0.0000 0.0000 0.0000 0.0000 0.0000 0.0000 0.0000 0.0000 0.0000 0.0000 0.0000 0.0000 0.0000 0.0000 0.0000 0.0000 0.0000 0.0000 0.0000 0.0000 0.0000 0.0000 0.0000 2.4161 6.3366 356.0176 21.6772 24.6287 40.0854 56.7720 5.7634 20.5842 350.5095 356.9569 8.2594 0.0000 0.0000 0.0000 0.0000 0.0000 0.0000 0.0000 0.0000 0.0000 0.0000 0.0000 0.0000 0.0000 0.0000 0.0000 0.0000 0.0000 0.0000 0.0000 0.0000 0.0000 0.0000 0.0000 0.0000 0.0000 0.0000 0.0000 0.0000 0.0000 0.0000 0.0000 0.0000 0.0000 0.0000 0.0000 0.0000 0.0000 0.0000 0.0000 0.0000 0.0000 0.0000 0.0000 0.0000 0.0000 4.2634 298.8026 0.8159 27.0533 61.9506 32.5384 349.5081 334.7706 348.8173 354.8320 2.1947 3.8143 345.5347 305.0494 0.3926 7.0777 63.0136 1.7965 348.3667 335.5833 14.0529 2.4823 0.6863 0.7645 
